<svg width="19" height="19" viewBox="0 0 19 19" fill="none"
    xmlns="http://www.w3.org/2000/svg">
    <path d="M9.85015 18.1662C14.8207 18.1662 18.8501 14.1367 18.8501 9.16615C18.8501 4.19559 14.8207 0.166153 9.85015 0.166153C4.87959 0.166153 0.850149 4.19559 0.850149 9.16615C0.850149 14.1367 4.87959 18.1662 9.85015 18.1662Z" fill="#FF3C7D"/>
    <path d="M9.85015 0.166153L9.85015 18.1662C14.8207 18.1662 18.8501 14.1367 18.8501 9.16615C18.8501 4.19559 14.8207 0.166153 9.85015 0.166153Z" fill="#E50058"/>
    <path d="M9.85015 16.0568C6.05064 16.0568 2.95952 12.9657 2.95952 9.16615C2.95952 5.36664 6.05064 2.27553 9.85015 2.27553C13.6497 2.27553 16.7408 5.36664 16.7408 9.16615C16.7408 12.9657 13.6497 16.0568 9.85015 16.0568Z" fill="#FFF5F5"/>
    <path d="M9.85015 2.27553L9.85015 16.0568C13.6497 16.0568 16.7408 12.9657 16.7408 9.16615C16.7408 5.36664 13.6497 2.27553 9.85015 2.27553Z" fill="#ECE9E8"/>
    <path d="M9.85015 13.9474C7.21378 13.9474 5.0689 11.8025 5.0689 9.16615C5.0689 6.52979 7.21378 4.3849 9.85015 4.3849C12.4865 4.3849 14.6314 6.52979 14.6314 9.16615C14.6314 11.8025 12.4865 13.9474 9.85015 13.9474Z" fill="#FF3C7D"/>
    <path d="M9.85015 4.3849L9.85015 13.9474C12.4865 13.9474 14.6314 11.8025 14.6314 9.16615C14.6314 6.52979 12.4865 4.3849 9.85015 4.3849Z" fill="#E50058"/>
    <path d="M9.85015 11.838C8.37689 11.838 7.17827 10.6394 7.17827 9.16615C7.17827 7.6929 8.37689 6.49428 9.85015 6.49428C11.3234 6.49428 12.522 7.6929 12.522 9.16615C12.522 10.6394 11.3234 11.838 9.85015 11.838Z" fill="#FFF5F5"/>
    <path d="M9.85015 6.49428L9.85015 11.838C11.3234 11.838 12.522 10.6394 12.522 9.16615C12.522 7.6929 11.3234 6.49428 9.85015 6.49428Z" fill="#ECE9E8"/>
    <path d="M18.4933 2.68067L17.4413 2.32078L16.7594 2.25687L16.6955 1.57501L16.3356 0.52303C16.2093 0.153819 15.7397 0.0449047 15.4638 0.320846L13.2264 2.55819C13.0841 2.7005 13.0352 2.91137 13.1003 3.10178L13.8177 5.19864L15.9145 5.91596C16.1049 5.98111 16.3158 5.93221 16.4581 5.78989L18.6955 3.55255C18.9714 3.27661 18.8625 2.80699 18.4933 2.68067Z" fill="#FF9F22"/>
    <path d="M18.4933 2.68068L17.4413 2.32078L16.7594 2.25687L13.8177 5.1986L15.9145 5.91593C16.1049 5.98107 16.3158 5.93217 16.4581 5.78986L18.6955 3.55251C18.9714 3.27661 18.8625 2.80699 18.4933 2.68068Z" fill="#FF7C48"/>
    <path d="M16.6955 1.575L16.8856 2.13068L17.4413 2.32077L10.223 9.53901C10.0171 9.74496 9.68319 9.74496 9.47725 9.53901C9.2713 9.33307 9.2713 8.99919 9.47725 8.79324L16.6955 1.575Z" fill="#FFF47D"/>
    <path d="M16.8856 2.13069L17.4413 2.32078L10.223 9.53903C10.0171 9.74497 9.68319 9.74497 9.47725 9.53903L16.8856 2.13069Z" fill="#FFD422"/>
</svg>
