<svg width="62" height="62" viewBox="0 0 62 62" fill="none"
    xmlns="http://www.w3.org/2000/svg">
    <path d="M40.6875 32.9375L53.2812 54.25L46.5 53.2812L42.625 59.0937L30.0312 37.7812L40.6875 32.9375Z" fill="#DE5540"/>
    <path d="M21.3125 32.9375L8.71875 54.25L15.5 53.2812L19.375 59.0937L31.9687 37.7812L21.3125 32.9375Z" fill="#DE5540"/>
    <path d="M34.6844 7.92027C35.9099 8.75806 37.3844 9.15315 38.8647 9.04038C40.1757 8.94047 41.4863 9.23874 42.625 9.89615C43.7637 10.5536 44.6773 11.5395 45.2463 12.7248C45.8887 14.0631 46.9681 15.1425 48.3065 15.7849C49.4918 16.3539 50.4777 17.2676 51.1351 18.4062C51.7925 19.5449 52.0908 20.8556 51.9908 22.1666C51.8781 23.6468 52.2732 25.1213 53.111 26.3469C53.853 27.4323 54.25 28.7165 54.25 30.0313C54.25 31.3461 53.853 32.6302 53.111 33.7157C52.2732 34.9412 51.8781 36.4157 51.9908 37.8959C52.0908 39.207 51.7925 40.5176 51.1351 41.6563C50.4777 42.7949 49.4918 43.7086 48.3065 44.2776C46.9681 44.92 45.8887 45.9994 45.2463 47.3377C44.6773 48.5231 43.7637 49.509 42.625 50.1664C41.4863 50.8238 40.1757 51.122 38.8647 51.0221C37.3844 50.9094 35.9099 51.3045 34.6844 52.1422C33.5989 52.8842 32.3148 53.2812 31 53.2812C29.6852 53.2812 28.401 52.8842 27.3156 52.1422C26.09 51.3045 24.6156 50.9094 23.1353 51.0221C21.8243 51.122 20.5136 50.8238 19.375 50.1664C18.2363 49.509 17.3227 48.5231 16.7537 47.3377C16.1112 45.9994 15.0318 44.92 13.6935 44.2776C12.5082 43.7086 11.5223 42.7949 10.8649 41.6563C10.2075 40.5176 9.90919 39.207 10.0091 37.8959C10.1219 36.4157 9.72678 34.9412 8.88899 33.7157C8.14699 32.6302 7.75 31.3461 7.75 30.0313C7.75 28.7165 8.14699 27.4323 8.88899 26.3469C9.72678 25.1213 10.1219 23.6468 10.0091 22.1666C9.90919 20.8556 10.2075 19.5449 10.8649 18.4062C11.5223 17.2676 12.5082 16.3539 13.6935 15.7849C15.0318 15.1425 16.1112 14.0631 16.7537 12.7248C17.3227 11.5395 18.2363 10.5536 19.375 9.89615C20.5136 9.23874 21.8243 8.94047 23.1353 9.04038C24.6156 9.15315 26.09 8.75806 27.3156 7.92027C28.401 7.17827 29.6852 6.78128 31 6.78128C32.3148 6.78128 33.5989 7.17827 34.6844 7.92027Z" fill="#FFB431"/>
    <path d="M31 47.4687C40.6305 47.4687 48.4375 39.6617 48.4375 30.0312C48.4375 20.4008 40.6305 12.5938 31 12.5938C21.3695 12.5938 13.5625 20.4008 13.5625 30.0312C13.5625 39.6617 21.3695 47.4687 31 47.4687Z" fill="#F99E0C"/>
    <path d="M19.375 24.1796H28.1251V37.7812H19.375V24.1796Z" fill="#426887"/>
    <path d="M34.9394 24.248L36.1161 20.5779C36.2053 20.2996 36.2365 20.0059 36.2076 19.7151C36.1788 19.4243 36.0906 19.1424 35.9485 18.887C35.8063 18.6316 35.6133 18.4081 35.3814 18.2303C35.1494 18.0525 34.8834 17.9242 34.5999 17.8533C34.1283 17.7354 33.6307 17.7819 33.1891 17.985C32.7475 18.1881 32.3883 18.5358 32.171 18.9705L30.9999 21.3125L28.125 24.2187V37.7812H38.7499C39.5207 37.7812 40.2599 37.475 40.8049 36.93C41.3499 36.385 41.6561 35.6458 41.6561 34.875V29.0625L42.3774 27.6199C42.5401 27.2945 42.6249 26.9356 42.6249 26.5717C42.6249 26.2631 42.564 25.9576 42.4457 25.6726C42.3273 25.3877 42.1539 25.1289 41.9353 24.9111C41.7167 24.6933 41.4572 24.5208 41.1718 24.4035C40.8864 24.2863 40.5806 24.2265 40.272 24.2277L34.9394 24.248Z" fill="#FDC8A2"/>
    <path d="M23.7344 31.9688C23.447 31.9688 23.166 32.054 22.9271 32.2136C22.6881 32.3733 22.5018 32.6003 22.3919 32.8658C22.2819 33.1313 22.2531 33.4235 22.3092 33.7054C22.3652 33.9872 22.5036 34.2462 22.7069 34.4494C22.9101 34.6526 23.169 34.791 23.4509 34.8471C23.7328 34.9031 24.0249 34.8744 24.2905 34.7644C24.556 34.6544 24.7829 34.4682 24.9426 34.2292C25.1023 33.9902 25.1875 33.7093 25.1875 33.4219C25.1871 33.0366 25.0339 32.6672 24.7614 32.3948C24.489 32.1224 24.1196 31.9692 23.7344 31.9688Z" fill="#2D475C"/>
    <path d="M1.9375 30.0312H4.84375V31.9687H1.9375V30.0312Z" fill="#FADE8D"/>
    <path d="M4.64185 6.01361L6.01166 4.6438L13.2762 11.9083L11.9064 13.2782L4.64185 6.01361Z" fill="#FADE8D"/>
    <path d="M1.25195 2.62253L2.62177 1.25272L4.55894 3.18989L3.18912 4.5597L1.25195 2.62253Z" fill="#FADE8D"/>
    <path d="M1.56104 19.2999L2.33216 17.5213L8.14749 20.0425L7.37636 21.8211L1.56104 19.2999Z" fill="#FADE8D"/>
    <path d="M1.5332 42.7075L7.34448 39.9942L8.16404 41.7496L2.35277 44.4628L1.5332 42.7075Z" fill="#FADE8D"/>
    <path d="M1.24463 59.3734L6.08769 54.5304L7.4575 55.9002L2.61444 60.7433L1.24463 59.3734Z" fill="#FADE8D"/>
    <path d="M30.0312 56.1875H31.9687V60.0625H30.0312V56.1875Z" fill="#FADE8D"/>
    <path d="M30.0312 1.9375H31.9687V3.875H30.0312V1.9375Z" fill="#FADE8D"/>
    <path d="M17.5261 2.31628L19.3049 1.54511L21.2442 6.01835L19.4655 6.78953L17.5261 2.31628Z" fill="#FADE8D"/>
    <path d="M57.1562 30.0312H60.0625V31.9687H57.1562V30.0312Z" fill="#FADE8D"/>
    <path d="M48.7151 11.913L55.9796 4.64845L57.3494 6.01826L50.0849 13.2828L48.7151 11.913Z" fill="#FADE8D"/>
    <path d="M57.4351 3.19785L59.3722 1.26068L60.742 2.63049L58.8049 4.56766L57.4351 3.19785Z" fill="#FADE8D"/>
    <path d="M53.896 20.023L59.7113 17.5018L60.4824 19.2804L54.6671 21.8016L53.896 20.023Z" fill="#FADE8D"/>
    <path d="M53.8396 41.774L54.6592 40.0186L60.4704 42.7318L59.6509 44.4872L53.8396 41.774Z" fill="#FADE8D"/>
    <path d="M54.5217 55.9041L55.8915 54.5342L60.7346 59.3773L59.3648 60.7471L54.5217 55.9041Z" fill="#FADE8D"/>
    <path d="M40.7859 6.00766L42.7253 1.53442L44.504 2.30559L42.5646 6.77883L40.7859 6.00766Z" fill="#FADE8D"/>
</svg>
