<svg width="50" height="50" viewBox="0 0 50 50" fill="none"
    xmlns="http://www.w3.org/2000/svg">
    <g clip-path="url(#clip0_1_11141)">
        <path fill-rule="evenodd" clip-rule="evenodd" d="M27.8227 35.442V38.9097H30.1268C31.6856 38.9097 32.9497 40.1737 32.9497 41.7325C32.9497 43.2913 31.6856 44.5555 30.1268 44.5555H27.8227V47.177C27.8227 48.7358 26.5586 50 24.9999 50C23.4411 50 22.177 48.7359 22.177 47.177V44.5555H19.872C18.3137 44.5555 17.0492 43.291 17.0492 41.7325C17.0492 40.1741 18.3137 38.9097 19.872 38.9097H22.177V35.442C13.6126 34.0767 7.16675 26.6342 7.16675 17.8331C7.16675 7.99922 15.1659 0 24.9999 0C34.8337 0 42.8333 7.99912 42.8333 17.8331C42.8333 26.6344 36.3874 34.0767 27.8227 35.442ZM12.8121 17.8331C12.8121 24.5523 18.2807 30.0204 24.9998 30.0204C31.7191 30.0204 37.1875 24.5525 37.1875 17.8331C37.1875 11.1137 31.719 5.6458 24.9998 5.6458C18.2808 5.6458 12.8121 11.1139 12.8121 17.8331Z" fill="#575757"/>
    </g>
    <defs>
        <clipPath id="clip0_1_11141">
            <rect width="50" height="50" fill="white"/>
        </clipPath>
    </defs>
</svg>
