<svg width="19" height="19" viewBox="0 0 19 19" fill="none"
    xmlns="http://www.w3.org/2000/svg">
    <g clip-path="url(#clip0_1_9875)">
        <path d="M12.3239 12.8781L12.3239 14.5456L8.84599 14.5456L8.84599 17.0975L2.098 17.0975L2.098 14.5351C2.098 13.6199 2.84008 12.8781 3.7553 12.8781L12.3239 12.8781Z" fill="#80B4FB"/>
        <path d="M8.84599 14.0916L11.4328 14.0916L11.4328 14.5456L8.84599 14.5456L8.84599 14.0916Z" fill="#5490F9"/>
        <path d="M4.52571 12.8783C3.61049 12.8783 2.86876 13.6203 2.86876 14.5352L2.86876 17.0976L2.0981 17.0976L2.0981 14.5352C2.0981 13.6204 2.83983 12.8783 3.75505 12.8783L4.52571 12.8783Z" fill="#5490F9"/>
        <path d="M3.63506 15.3163L3.63506 17.0975L3.09179 17.0975L3.09179 15.3163C3.09179 15.1664 3.21347 15.0447 3.36341 15.0447C3.51335 15.0447 3.63506 15.1664 3.63506 15.3163Z" fill="#5490F9"/>
        <path d="M16.6088 14.5351L16.6088 17.0975L9.86082 17.0975L9.86082 14.5351C9.86082 13.6199 10.6029 12.8781 11.5181 12.8781L14.9515 12.8781C15.8667 12.8781 16.6088 13.6199 16.6088 14.5351Z" fill="#DD636E"/>
        <path d="M12.2407 12.8783C11.3255 12.8783 10.5838 13.62 10.5838 14.5352L10.5838 17.0976L9.86089 17.0976L9.86089 14.5352C9.86089 13.62 10.603 12.8783 11.5182 12.8783L12.2407 12.8783Z" fill="#DA4A54"/>
        <path d="M14.1684 11.3164L14.1684 12.8753C14.1684 13.3908 13.7504 13.8088 13.2349 13.8088C12.7192 13.8088 12.3012 13.3908 12.3012 12.8753L12.3012 11.3164L14.1684 11.3164Z" fill="#C38959"/>
        <path d="M13.5398 13.7579C13.4443 13.7908 13.3417 13.8087 13.235 13.8087C12.7193 13.8087 12.3013 13.3908 12.3013 12.8753L12.3013 11.3163L12.9108 11.3163L12.9108 12.8753C12.9108 13.2843 13.1738 13.6318 13.5398 13.7579Z" fill="#B17A4A"/>
        <path d="M9.33502 10.0182C8.66195 10.0182 8.11633 9.47261 8.11633 8.79954C8.11633 8.7069 8.12666 8.61669 8.14624 8.52996C8.30434 7.82979 9.33502 7.94461 9.33502 8.66243L17.1347 8.66243C17.1347 7.94461 18.1654 7.82979 18.3235 8.52996C18.3431 8.61669 18.3534 8.7069 18.3534 8.79954C18.3534 9.47261 17.8078 10.0182 17.1347 10.0182" fill="#B17A4A"/>
        <path d="M12.3012 11.3164L14.1683 11.3164L14.1683 12.7526L12.3012 12.7526L12.3012 11.3164Z" fill="#B17A4A"/>
        <path d="M9.33495 4.80325L9.33495 9.41611C9.33495 10.9858 10.6077 12.2585 12.1774 12.2585L14.2923 12.2585C15.8622 12.2585 17.1347 10.9858 17.1347 9.41611L17.1347 4.80325" fill="#C38959"/>
        <path d="M13.9675 12.2585L12.1774 12.2585C10.6077 12.2585 9.33495 10.9858 9.33495 9.41611L9.33495 4.80319L11.1251 4.80319L11.1251 9.41611C11.1251 10.9858 12.3979 12.2585 13.9675 12.2585Z" fill="#B17A4A"/>
        <path d="M11.2341 7.82019C11.0307 7.82019 10.8652 8.09466 10.8652 8.43201C10.8652 8.76937 11.0307 9.04384 11.2341 9.04384C11.4376 9.04384 11.6031 8.76937 11.6031 8.43201C11.6031 8.09466 11.4376 7.82019 11.2341 7.82019Z" fill="#454045"/>
        <path d="M15.2356 7.82019C15.0322 7.82019 14.8667 8.09466 14.8667 8.43201C14.8667 8.76937 15.0322 9.04384 15.2356 9.04384C15.439 9.04384 15.6045 8.76937 15.6045 8.43201C15.6045 8.09466 15.439 7.82019 15.2356 7.82019Z" fill="#454045"/>
        <path d="M13.2349 10.4691C12.8238 10.4691 12.4549 10.2242 12.2951 9.84518C12.2485 9.73458 12.3003 9.60713 12.4109 9.56052C12.5214 9.5139 12.649 9.56576 12.6956 9.67632C12.7873 9.89387 12.999 10.0345 13.2349 10.0345C13.4709 10.0345 13.6826 9.89387 13.7743 9.67632C13.821 9.56576 13.9484 9.5139 14.059 9.56052C14.1696 9.60713 14.2215 9.73458 14.1748 9.84518C14.015 10.2242 13.6461 10.4691 13.2349 10.4691Z" fill="#985E33"/>
        <path d="M15.5321 10.0062C15.8846 10.0062 16.1704 9.83246 16.1704 9.61808C16.1704 9.40371 15.8846 9.22992 15.5321 9.22992C15.1795 9.22992 14.8937 9.40371 14.8937 9.61808C14.8937 9.83246 15.1795 10.0062 15.5321 10.0062Z" fill="#E490B7"/>
        <path d="M10.9377 10.0062C11.2902 10.0062 11.576 9.83246 11.576 9.61808C11.576 9.40371 11.2902 9.22992 10.9377 9.22992C10.5851 9.22992 10.2993 9.40371 10.2993 9.61808C10.2993 9.83246 10.5851 10.0062 10.9377 10.0062Z" fill="#E490B7"/>
        <path d="M13.6146 9.19016L12.8551 9.19016C12.7351 9.19016 12.6378 9.09288 12.6378 8.97285C12.6378 8.85283 12.7351 8.75555 12.8551 8.75555L13.6146 8.75555C13.7346 8.75555 13.8319 8.85283 13.8319 8.97285C13.8319 9.09284 13.7346 9.19016 13.6146 9.19016Z" fill="#B17A4A"/>
        <path d="M16.3389 1.87555L10.1307 1.87555C9.69122 1.87555 9.33495 2.23182 9.33495 2.67131L9.33495 4.80322L9.33495 5.40105L9.33495 7.19451C9.78066 7.19451 10.142 6.83318 10.142 6.38747L10.142 5.40102L16.3276 5.40102L16.3276 6.38747C16.3276 6.83318 16.6889 7.19451 17.1346 7.19451L17.1346 5.40105L17.1346 4.80322L17.1346 2.67135C17.1346 2.23186 16.7784 1.87555 16.3389 1.87555Z" fill="#544F57"/>
        <path d="M11.9616 1.87555C11.522 1.87555 11.1658 2.23172 11.1658 2.67135L11.1658 5.40112L10.142 5.40112L10.142 6.38736C10.142 6.61011 10.0515 6.81208 9.90571 6.95816C9.75964 7.10395 9.55766 7.19441 9.33491 7.19441L9.33491 2.67135C9.33491 2.23175 9.69108 1.87555 10.1307 1.87555L11.9616 1.87555Z" fill="#454045"/>
        <path d="M15.4559 14.1454L15.1805 14.1454C14.9066 14.1454 14.6846 13.9234 14.6846 13.6495L14.6846 12.8781L15.4837 12.8781C15.7423 12.8781 15.9519 13.0877 15.9519 13.3463L15.9519 13.6495C15.9519 13.9234 15.7298 14.1454 15.4559 14.1454Z" fill="#FFCBBE"/>
        <path d="M15.9516 13.3464L15.9516 13.6496C15.9516 13.6699 15.9505 13.6901 15.948 13.7097C15.9194 13.4786 15.7227 13.2997 15.4837 13.2997L14.6844 13.2997L14.6844 12.8781L15.4837 12.8781C15.7423 12.8781 15.9516 13.0878 15.9516 13.3464Z" fill="#EAAC9D"/>
        <path d="M11.362 15.3887L11.362 17.0975L10.8188 17.0975L10.8188 15.3887C10.8188 15.2388 10.9405 15.1171 11.0904 15.1171C11.2403 15.1171 11.362 15.2388 11.362 15.3887Z" fill="#DA4A54"/>
        <path d="M15.6509 15.3887L15.6509 17.0975L15.1076 17.0975L15.1076 15.3887C15.1076 15.2388 15.2293 15.1171 15.3792 15.1171C15.5292 15.1171 15.6509 15.2388 15.6509 15.3887Z" fill="#DA4A54"/>
        <path d="M10.0113 8.06129L9.37169 9.41607L1.03712 8.06439C0.680673 6.58744 -0.188143 3.25262 2.67027 1.99164C4.87 1.02115 7.12587 2.07562 7.12587 2.07562C7.12587 2.07562 12.0843 1.11217 10.0113 8.06129Z" fill="#F4DD45"/>
        <path d="M3.43938 7.15092L2.08619 10.0683L1.03716 8.06439C0.680674 6.58744 -0.188143 3.25262 2.67027 1.99164C4.87 1.02115 7.12587 2.07562 7.12587 2.07562C2.97842 2.07562 2.72617 5.66272 3.43938 7.15092Z" fill="#EAB14D"/>
        <path d="M6.40545 11.3164L6.40545 12.8753C6.40545 13.3908 5.98747 13.8088 5.47201 13.8088C4.95627 13.8088 4.5383 13.3908 4.5383 12.8753L4.5383 11.3164L6.40545 11.3164Z" fill="#FFCBBE"/>
        <path d="M5.77689 13.7579C5.68137 13.7908 5.57885 13.8087 5.47212 13.8087C4.95638 13.8087 4.5384 13.3908 4.5384 12.8753L4.5384 11.3163L5.14794 11.3163L5.14794 12.8753C5.14794 13.2843 5.41088 13.6318 5.77689 13.7579Z" fill="#EAAC9D"/>
        <path d="M1.5721 10.0182C0.899029 10.0182 0.353404 9.47261 0.353404 8.79954C0.353404 8.7069 0.36374 8.61669 0.383322 8.52996C0.54142 7.82979 1.5721 7.94461 1.5721 8.66243L9.37179 8.66243C9.37179 7.94461 10.4025 7.82979 10.5606 8.52996C10.5801 8.61669 10.5905 8.7069 10.5905 8.79954C10.5905 9.47261 10.0449 10.0182 9.37179 10.0182" fill="#EAAC9D"/>
        <path d="M4.53833 11.3164L6.40545 11.3164L6.40545 12.7526L4.53833 12.7526L4.53833 11.3164Z" fill="#EAAC9D"/>
        <path d="M9.37165 7.42817L9.37165 9.41608C9.37165 10.9857 8.09917 12.2585 6.52923 12.2585L4.41434 12.2585C2.84468 12.2585 1.57192 10.9857 1.57192 9.41608L1.57192 7.48407C2.17081 7.40233 2.80787 7.29362 3.43935 7.15092C4.97023 6.80541 6.46996 6.25908 7.32194 5.4071C7.32194 5.4071 7.86239 7.20401 9.37165 7.42817Z" fill="#FFCBBE"/>
        <path d="M6.28177 12.2585L4.41434 12.2585C2.84468 12.2585 1.57192 10.9857 1.57192 9.41606L1.57192 7.48405C2.17081 7.40231 2.80787 7.29361 3.43935 7.15091L3.43935 9.41606C3.43938 10.9857 4.71183 12.2585 6.28177 12.2585Z" fill="#EAAC9D"/>
        <path d="M3.4712 7.82019C3.26779 7.82019 3.10231 8.09466 3.10231 8.43201C3.10231 8.76937 3.26779 9.04384 3.4712 9.04384C3.67465 9.04384 3.84013 8.76937 3.84013 8.43201C3.84013 8.09466 3.67465 7.82019 3.4712 7.82019Z" fill="#454045"/>
        <path d="M7.47269 7.82019C7.26924 7.82019 7.10376 8.09466 7.10376 8.43201C7.10376 8.76937 7.26924 9.04384 7.47269 9.04384C7.6761 9.04384 7.84158 8.76937 7.84158 8.43201C7.84158 8.09466 7.6761 7.82019 7.47269 7.82019Z" fill="#454045"/>
        <path d="M5.47205 10.4691C5.0609 10.4691 4.692 10.2242 4.53222 9.84518C4.48556 9.73458 4.53742 9.60713 4.64802 9.56052C4.75855 9.5139 4.88606 9.56576 4.93268 9.67632C5.02444 9.89387 5.23615 10.0345 5.47208 10.0345C5.70798 10.0345 5.91969 9.89387 6.01145 9.67632C6.05807 9.56576 6.18547 9.5139 6.29611 9.56052C6.40671 9.60713 6.45857 9.73458 6.41192 9.84518C6.25206 10.2242 5.88317 10.4691 5.47205 10.4691Z" fill="#DD636E"/>
        <path d="M7.76916 10.0062C8.12172 10.0062 8.40752 9.83246 8.40752 9.61808C8.40752 9.40371 8.12172 9.22992 7.76916 9.22992C7.4166 9.22992 7.13079 9.40371 7.13079 9.61808C7.13079 9.83246 7.4166 10.0062 7.76916 10.0062Z" fill="#E490B7"/>
        <path d="M3.17473 10.0062C3.52729 10.0062 3.8131 9.83246 3.8131 9.61808C3.8131 9.40371 3.52729 9.22992 3.17473 9.22992C2.82217 9.22992 2.53636 9.40371 2.53636 9.61808C2.53636 9.83246 2.82217 10.0062 3.17473 10.0062Z" fill="#E490B7"/>
        <path d="M5.8517 9.19016L5.09215 9.19016C4.97216 9.19016 4.87485 9.09288 4.87485 8.97285C4.87485 8.85283 4.97216 8.75555 5.09215 8.75555L5.8517 8.75555C5.97169 8.75555 6.069 8.85283 6.069 8.97285C6.069 9.09284 5.97172 9.19016 5.8517 9.19016Z" fill="#EAAC9D"/>
    </g>
    <defs>
        <clipPath id="clip0_1_9875">
            <rect width="18" height="18" fill="white" transform="translate(0.353404 0.339355)"/>
        </clipPath>
    </defs>
</svg>
