<svg width="23" height="22" viewBox="0 0 23 22" fill="none"
    xmlns="http://www.w3.org/2000/svg">
    <path d="M19.8038 11.1462C19.8038 10.4647 19.7473 9.96746 19.6248 9.45178H11.6643V12.5275H16.337C16.2428 13.2918 15.7341 14.4429 14.6036 15.2164L14.5877 15.3194L17.1047 17.2254L17.2791 17.2424C18.8806 15.7966 19.8038 13.6694 19.8038 11.1462Z" fill="#4285F4"/>
    <path d="M11.6643 19.2501C13.9535 19.2501 15.8753 18.5134 17.279 17.2426L14.6035 15.2167C13.8875 15.7047 12.9266 16.0455 11.6643 16.0455C9.42215 16.0455 7.51918 14.5997 6.84083 12.6014L6.74139 12.6097L4.12422 14.5896L4.09 14.6826C5.48425 17.3899 8.34814 19.2501 11.6643 19.2501Z" fill="#34A853"/>
    <path d="M6.8408 12.6014C6.66181 12.0857 6.55822 11.5331 6.55822 10.9622C6.55822 10.3912 6.66181 9.83873 6.83139 9.32305L6.82664 9.21322L4.17668 7.20154L4.08997 7.24185C3.51534 8.36533 3.18561 9.62695 3.18561 10.9622C3.18561 12.2975 3.51534 13.559 4.08997 14.6825L6.8408 12.6014Z" fill="#FBBC05"/>
    <path d="M11.6643 5.87887C13.2563 5.87887 14.3303 6.55111 14.9426 7.11288L17.3355 4.8291C15.8659 3.49384 13.9535 2.67426 11.6643 2.67426C8.34814 2.67426 5.48425 4.5344 4.09 7.24175L6.83141 9.32295C7.51918 7.32466 9.42215 5.87887 11.6643 5.87887Z" fill="#EB4335"/>
</svg>
