<svg width="62" height="62" viewBox="0 0 62 62" fill="none"
    xmlns="http://www.w3.org/2000/svg">
    <g clip-path="url(#clip0_1_11519)">
        <path d="M62.0001 31C62.0001 35.8455 60.8883 40.4313 58.906 44.5164C53.8843 54.8653 43.2754 59.4471 31.0001 59.4471C13.8792 59.4471 3.03931 48.1209 3.03931 31C3.03931 20.2995 5.42169 10.8652 13.6677 5.29431C18.6153 1.95178 24.5798 0 31.0001 0C48.121 0 62.0001 13.8791 62.0001 31Z" fill="#5490F9"/>
        <path d="M41.5999 49.794C24.4791 49.794 10.5999 35.9149 10.5999 18.794C10.5999 13.9479 11.7128 9.36223 13.6956 5.27692C5.43412 10.8455 0 20.2877 0 31C0 42.1268 5.86216 51.8844 14.6664 57.3529L55.2425 50.3222C56.667 48.5371 57.8986 46.5913 58.9055 44.5162C53.9631 47.8482 48.009 49.794 41.5999 49.794Z" fill="#4278C3"/>
        <path d="M47.0637 50.3209H27.6804L14.6677 34.1753L24.1277 3.60379L50.3704 20.1583L47.0637 50.3209Z" fill="#D3EFFB"/>
        <path d="M44.8159 50.3209H22.1259L9.11328 34.1753L18.5733 3.60379L44.8159 20.1583V50.3209Z" fill="#A0DCFF"/>
        <path d="M42.4004 18.6344L39.9 17.0572L33.3913 15.6979L30.5868 11.1821L23.7992 6.90036L16.8223 24.2959L19.8577 42.8828H44.816V27.0324L42.4004 18.6344Z" fill="#A0DCFF"/>
        <path d="M40.5557 42.664C37.4559 42.664 34.4393 41.9632 31.711 40.6595C30.5383 40.0992 26.9647 39.6815 26.9647 39.6815C26.9647 39.6815 26.422 37.0726 25.5584 36.1472C25.2209 35.7857 24.8954 35.4106 24.5826 35.0225C20.298 29.7064 18.939 22.6069 20.9574 16.0843L23.7993 6.90037L18.5733 3.60379L9.41626 33.1959L15.6445 42.2789L17.4761 44.5515L22.4196 50.3208H44.8158V42.664H40.5557Z" fill="#90D8F9"/>
        <path d="M18.5732 3.60379H24.1276L50.3702 20.1583H44.8159L18.5732 3.60379Z" fill="#F9F6F6"/>
        <path d="M39.8999 17.0572L30.5867 11.1821L9.41623 33.1959L9.11328 34.1753L15.6444 42.2789L39.8999 17.0572Z" fill="#D3EFFB"/>
        <path d="M44.8159 20.1583L42.4003 18.6344L17.4761 44.5515L22.1258 50.3209H22.4197L44.8159 27.0324V20.1583Z" fill="#D3EFFB"/>
        <path d="M25.5599 36.1459L17.4763 44.5515L22.1261 50.3208H22.4198L31.7112 40.6594C29.4156 39.5626 27.3253 38.0377 25.5599 36.1459Z" fill="#A0DCFF"/>
        <path d="M23.7251 33.8764C22.9378 32.7469 21.0783 30.4736 21.0783 30.4736C21.0783 30.4736 20.7255 27.5934 20.4423 26.1802C20.1768 24.8552 20.0421 23.5041 20.0421 22.1471L9.41635 33.1961L9.11328 34.1754L15.6446 42.2791L23.7251 33.8764Z" fill="#A0DCFF"/>
        <path d="M45.2354 58.5417C49.1234 56.5275 52.5318 53.7159 55.241 50.3209H27.7273V58.5417H45.2354Z" fill="#ECC32E"/>
        <path d="M31 62C36.3282 62 41.3422 60.6556 45.7216 58.2875H32.5795C30.0403 58.2875 27.9819 56.2291 27.9819 53.6899V50.3209H18.7763C16.5071 50.3209 14.6675 52.1605 14.6675 54.4297V57.3511C19.4105 60.2971 25.0059 62 31 62Z" fill="#E7A52E"/>
        <path d="M28.3692 20.5695C28.9276 20.5649 31.9945 24.9173 31.9945 24.9173C32.0329 24.9952 32.0779 25.0688 32.1286 25.1375C32.3575 25.4477 32.7029 25.6578 33.0913 25.7142L35.2852 26.0329C35.2852 26.0329 38.7253 27.1694 37.8607 28.0121C37.8607 28.0121 33.2567 32.9288 33.3378 33.4013L35.4123 36.8106L35.7987 39.0636C36.0029 40.2537 34.7539 41.1611 33.6852 40.5993L32.4123 39.9302L29.7509 37.3259C29.7509 37.3259 28.1157 37.9379 27.6913 38.161L23.0534 40.5993C21.9847 41.1612 20.7357 40.2537 20.9398 39.0636L21.8255 33.8992C21.9066 33.4266 21.7499 32.9445 21.4066 32.6098L17.6544 28.9523C16.7898 28.1096 17.2669 26.6413 18.4617 26.4677L20.4422 26.1799L23.7252 26.7013C24.0266 26.6576 27.8108 20.5741 28.3692 20.5695Z" fill="#90D8F9"/>
        <path d="M34.9128 33.8993C34.8317 33.4268 34.9884 32.9446 35.3317 32.6099L39.0839 28.9524C39.9485 28.1097 39.4714 26.6414 38.2766 26.4678L35.2852 26.0331L21.4417 40.428C21.8663 40.7814 22.4853 40.898 23.0533 40.5993L27.6913 38.161C28.1156 37.9379 28.6226 37.9379 29.047 38.161L32.4121 39.9302L35.4121 36.8107L34.9128 33.8993Z" fill="#A0DCFF"/>
        <path d="M21.8255 33.8993L21.8088 33.9961H23.6098L23.725 33.8763L32.1305 25.1359C32.0798 25.0672 32.0327 24.9952 31.9943 24.9173L29.6754 20.2186C29.4299 19.7214 28.9236 19.4066 28.3691 19.4066C27.8147 19.4066 27.3082 19.7214 27.0629 20.2186L24.7438 24.9173C24.5317 25.3472 24.1215 25.6453 23.647 25.7142L20.4421 26.1799L20.2324 26.2104V31.4654L21.4067 32.6099C21.7497 32.9446 21.9064 33.4268 21.8255 33.8993Z" fill="#A0DCFF"/>
        <path d="M23.0534 40.5993L27.6913 38.161C27.7 38.1564 27.7092 38.1535 27.718 38.149C26.5738 37.231 25.5202 36.186 24.5825 35.0225C22.4785 32.4119 21.0819 29.371 20.4423 26.1799L18.4617 26.4677C17.2669 26.6413 16.7898 28.1096 17.6544 28.9523L21.4066 32.6098C21.7499 32.9445 21.9066 33.4266 21.8255 33.8992L20.9398 39.0637C20.7357 40.2537 21.9848 41.1612 23.0534 40.5993Z" fill="#80B4FB"/>
        <path d="M23.0534 40.5993C23.9497 40.1283 27.5692 38.2236 27.718 38.149C26.9077 37.496 26.1633 36.7944 25.5598 36.1458L21.4417 40.4279C21.8664 40.7814 22.4854 40.898 23.0534 40.5993Z" fill="#90D8F9"/>
        <path d="M21.418 36.2754L23.7252 33.8763C22.169 31.643 21.0256 29.05 20.4531 26.2298C20.4497 26.2131 20.4457 26.1966 20.4423 26.1799L18.4617 26.4677C17.2669 26.6413 16.7898 28.1096 17.6544 28.9523L21.4066 32.6098C21.7499 32.9445 21.9066 33.4266 21.8255 33.8992L21.418 36.2754Z" fill="#90D8F9"/>
        <path d="M53.8074 2.27527C54.5155 4.74773 56.4483 6.68043 58.9207 7.38857C56.4482 8.0967 54.5155 10.0295 53.8074 12.5019C53.0993 10.0294 51.1664 8.0967 48.6941 7.38857C51.1664 6.68043 53.0991 4.74773 53.8074 2.27527Z" fill="#A0DCFF"/>
        <path d="M50.3702 12.541C50.7322 13.8048 51.72 14.7926 52.9838 15.1546C51.7201 15.5167 50.7322 16.5044 50.3702 17.7683C50.0082 16.5045 49.0204 15.5167 47.7566 15.1546C49.0204 14.7926 50.0083 13.8048 50.3702 12.541Z" fill="#F9F6F6"/>
        <path d="M45.4598 5.04657C45.9639 6.8064 47.3395 8.18207 49.0994 8.68609C47.3395 9.19011 45.9639 10.5658 45.4598 12.3256C44.9558 10.5658 43.5801 9.19011 41.8203 8.68609C43.5801 8.18195 44.9558 6.80628 45.4598 5.04657Z" fill="#F9F6F6"/>
    </g>
    <defs>
        <clipPath id="clip0_1_11519">
            <rect width="62" height="62" fill="white"/>
        </clipPath>
    </defs>
</svg>
