<svg width="20" height="21" viewBox="0 0 20 21" fill="none"
    xmlns="http://www.w3.org/2000/svg">
    <g clip-path="url(#clip0_1_9944)">
        <path d="M10.8298 19.6838C15.7791 19.2238 19.4183 14.8388 18.9584 9.88952C18.4984 4.94029 14.1134 1.30102 9.16413 1.761C4.2149 2.22097 0.575631 6.606 1.0356 11.5552C1.49558 16.5045 5.8806 20.1437 10.8298 19.6838Z" fill="#FFD664"/>
        <path d="M4.27197 10.287C4.20196 10.2935 4.13065 10.286 4.05739 10.2575C3.80194 10.1683 3.66959 9.884 3.75884 9.62855C3.78734 9.55528 4.42995 7.80785 6.33424 7.63087C8.20353 7.45714 9.18452 9.04662 9.22603 9.11338C9.36782 9.34735 9.29013 9.65116 9.05551 9.78595C8.82153 9.92774 8.52473 9.8494 8.38359 9.62243C8.35038 9.56902 7.67153 8.4952 6.42534 8.61102C5.14414 8.73009 4.69272 9.95133 4.68637 9.95898C4.61927 10.1488 4.454 10.2701 4.27197 10.287Z" fill="#191919"/>
        <path d="M10.965 9.66498C10.895 9.67149 10.8237 9.66399 10.7504 9.63549C10.495 9.54625 10.3626 9.26197 10.4519 9.00652C10.4804 8.93325 11.123 7.18582 13.0273 7.00884C14.8966 6.83511 15.8776 8.42459 15.9191 8.49134C16.0609 8.72532 15.9832 9.02913 15.7485 9.16392C15.5146 9.30571 15.2178 9.22737 15.0766 9.00039C15.0441 8.95399 14.3646 7.87317 13.1184 7.98899C11.8372 8.10806 11.3857 9.32929 11.3794 9.33695C11.3193 9.52613 11.147 9.64806 10.965 9.66498Z" fill="#191919"/>
        <path opacity="0.06" d="M18.9584 9.88952C18.8647 8.88137 18.6062 7.92383 18.2142 7.04932C18.0637 11.3567 16.2727 19.4392 4.75227 18.0383C6.4544 19.2571 8.58249 19.8926 10.8298 19.6838C15.7796 19.2237 19.4184 14.8393 18.9584 9.88952Z" fill="black"/>
        <path opacity="0.35" d="M3.94079 6.72347C3.80076 6.73648 3.64919 6.70114 3.52106 6.61418C3.2342 6.41487 3.1621 6.01907 3.36141 5.7322C4.73818 3.75412 6.52657 3.2419 6.60228 3.22074C6.93948 3.12585 7.29 3.3263 7.3779 3.66415C7.47279 4.00134 7.27168 4.34487 6.94149 4.43911C6.90713 4.44936 5.49224 4.87744 4.39539 6.44819C4.29068 6.61327 4.11581 6.7072 3.94079 6.72347Z" fill="white"/>
        <path d="M10.1375 12.2346C10.1375 12.2346 7.83043 12.4843 5.18415 13.1116C4.93536 13.17 4.78946 13.4237 4.86124 13.6642C5.18303 14.7712 6.4127 17.5168 10.5923 17.1284C14.772 16.7399 15.4753 13.8217 15.5869 12.6673C15.6131 12.4177 15.416 12.196 15.1677 12.1837C12.4511 12.0549 10.1375 12.2346 10.1375 12.2346Z" fill="#191919"/>
        <path d="M10.5572 16.7503C12.6295 16.5577 13.8085 15.6431 14.449 14.708C14.5048 14.6251 14.4378 14.5113 14.3397 14.5204L6.42852 15.2556C6.33051 15.2648 6.28556 15.389 6.35573 15.4601C7.15752 16.2613 8.48489 16.9429 10.5572 16.7503Z" fill="#F7F7F7"/>
        <path d="M15.1173 12.7816C15.1152 12.6829 15.0368 12.5984 14.9304 12.5942C12.4615 12.4706 10.1779 12.6687 10.1779 12.6687C10.1779 12.6687 7.89682 12.8948 5.49298 13.4713C5.39626 13.4944 5.32771 13.5926 5.34382 13.6899C5.38955 13.954 5.5227 14.323 5.77177 14.7235C5.83754 14.8233 5.94907 14.8836 6.06808 14.8725L14.6234 14.0774C14.7424 14.0663 14.8479 13.9859 14.8872 13.8763C15.0588 13.4438 15.1211 13.0496 15.1173 12.7816Z" fill="#F7F7F7"/>
    </g>
    <defs>
        <clipPath id="clip0_1_9944">
            <rect width="18" height="18" fill="white" transform="translate(0.202749 2.59385) rotate(-5.30971)"/>
        </clipPath>
    </defs>
</svg>
