<svg width="50" height="50" viewBox="0 0 50 50" fill="none"
    xmlns="http://www.w3.org/2000/svg">
    <path d="M45.8 1.7H32C30.6 1.7 29.5 2.8 29.5 4.2C29.5 5.6 30.6 6.7 32 6.7H39.7L30.5 15.9C23.4 10.6 13.3 11.1 6.90002 17.5C-0.0999752 24.5 -0.0999752 36 6.90002 43C13.9 50 25.4 50 32.4 43C38.8 36.6 39.4 26.4 34 19.4L43.2 10.2V18C43.2 19.4 44.3 20.5 45.7 20.5C47.1 20.5 48.2 19.4 48.2 18V4.2C48.3 2.8 47.2 1.7 45.8 1.7ZM29 39.5C23.9 44.6 15.6 44.6 10.5 39.5C5.40002 34.4 5.40002 26.1 10.5 21C15.6 15.9 23.9 15.9 29 21C34.1 26.1 34.1 34.4 29 39.5Z" fill="#575757"/>
</svg>
