<svg width="186" height="202" viewBox="0 0 186 202" fill="none"
    xmlns="http://www.w3.org/2000/svg">
    <g filter="url(#filter0_b_1_10018)">
        <path d="M153.482 94.4217C153.475 94.4148 153.471 94.4053 153.471 94.3956C153.463 52.0008 119.102 17.6211 76.7356 17.6211C34.3638 17.6211 3.05176e-05 52.0091 3.05176e-05 94.4109C3.05176e-05 112.999 6.60403 130.037 17.5885 143.325C24.7617 152.003 30.4568 162.283 30.4568 173.541V193.255C30.4568 197.673 34.623 200.979 39.3686 201.078C41.7771 201.128 43.9841 199.927 46.0704 198.723L72.3754 183.535C75.8722 181.526 80.4483 181.526 83.9451 183.535L110.25 198.723C112.336 199.927 114.543 201.128 116.952 201.078C121.697 200.979 125.864 197.673 125.864 193.255V170.272C125.864 159.595 131.003 149.762 137.527 141.31C147.533 128.348 153.489 112.098 153.493 94.4478C153.493 94.4381 153.489 94.4286 153.482 94.4217Z" fill="url(#paint0_linear_1_10018)" fill-opacity="0.09"/>
        <path d="M72.226 183.275L72.2254 183.275L45.9204 198.463C43.8249 199.673 41.6877 200.827 39.3748 200.778C34.7394 200.682 30.7568 197.461 30.7568 193.255V173.541C30.7568 162.181 25.0119 151.835 17.8197 143.134C6.87802 129.898 0.300031 112.927 0.300031 94.4109C0.300031 52.1746 34.5296 17.9211 76.7356 17.9211C118.937 17.9211 153.163 52.1663 153.171 94.3956C153.171 94.4363 153.179 94.4764 153.193 94.5141C153.174 112.07 147.243 128.232 137.289 141.127C130.748 149.601 125.564 159.499 125.564 170.272V193.255C125.564 197.461 121.581 200.682 116.946 200.778C114.633 200.827 112.496 199.673 110.4 198.463L84.0951 183.275L84.0945 183.275C80.5052 181.213 75.8153 181.213 72.226 183.275Z" stroke="url(#paint1_linear_1_10018)" stroke-width="0.6"/>
    </g>
    <g filter="url(#filter1_b_1_10018)">
        <path d="M153.482 94.4217C153.475 94.4148 153.471 94.4053 153.471 94.3956C153.463 52.0008 119.102 17.6211 76.7356 17.6211C34.3638 17.6211 3.05176e-05 52.0091 3.05176e-05 94.4109C3.05176e-05 112.999 6.60403 130.037 17.5885 143.325C24.7617 152.003 30.4568 162.283 30.4568 173.541V193.255C30.4568 197.673 34.623 200.979 39.3686 201.078C41.7771 201.128 43.9841 199.927 46.0704 198.723L72.3754 183.535C75.8722 181.526 80.4483 181.526 83.9451 183.535L110.25 198.723C112.336 199.927 114.543 201.128 116.952 201.078C121.697 200.979 125.864 197.673 125.864 193.255V170.272C125.864 159.595 131.003 149.762 137.527 141.31C147.533 128.348 153.489 112.098 153.493 94.4478C153.493 94.4381 153.489 94.4286 153.482 94.4217Z" fill="url(#paint2_linear_1_10018)" fill-opacity="0.09"/>
        <path d="M72.226 183.275L72.2254 183.275L45.9204 198.463C43.8249 199.673 41.6877 200.827 39.3748 200.778C34.7394 200.682 30.7568 197.461 30.7568 193.255V173.541C30.7568 162.181 25.0119 151.835 17.8197 143.134C6.87802 129.898 0.300031 112.927 0.300031 94.4109C0.300031 52.1746 34.5296 17.9211 76.7356 17.9211C118.937 17.9211 153.163 52.1663 153.171 94.3956C153.171 94.4363 153.179 94.4764 153.193 94.5141C153.174 112.07 147.243 128.232 137.289 141.127C130.748 149.601 125.564 159.499 125.564 170.272V193.255C125.564 197.461 121.581 200.682 116.946 200.778C114.633 200.827 112.496 199.673 110.4 198.463L84.0951 183.275L84.0945 183.275C80.5052 181.213 75.8153 181.213 72.226 183.275Z" stroke="url(#paint3_linear_1_10018)" stroke-width="0.6"/>
    </g>
    <g filter="url(#filter2_b_1_10018)">
        <path d="M153.471 94.4109C153.471 52.0091 119.107 17.6211 76.7356 17.6211C34.3638 17.6211 3.05176e-05 52.0091 3.05176e-05 94.4109C3.05176e-05 119.424 11.9583 141.63 30.4568 155.67V193.255C30.4568 198.763 36.9324 202.543 42.9331 200.534L72.3754 183.535C75.8722 181.526 80.4483 181.526 83.9451 183.535L113.387 200.534C119.388 202.543 125.864 198.763 125.864 193.255V153.424C142.743 139.34 153.493 118.15 153.493 94.4325L153.471 94.4109Z" fill="url(#paint4_linear_1_10018)" fill-opacity="0.09"/>
        <path d="M153.171 94.4109V94.5351L153.193 94.5566C153.155 118.131 142.456 139.189 125.671 153.193L125.564 153.283V153.424V193.255C125.564 195.881 124.021 198.114 121.725 199.454C119.435 200.79 116.418 201.223 113.511 200.259L84.0951 183.275L84.0945 183.275C80.5052 181.213 75.8153 181.213 72.226 183.275L72.2254 183.275L42.8095 200.259C39.9022 201.223 36.885 200.79 34.5959 199.454C32.2996 198.114 30.7568 195.881 30.7568 193.255V155.67V155.521L30.6382 155.431C12.211 141.445 0.300031 119.326 0.300031 94.4109C0.300031 52.1746 34.5296 17.9211 76.7356 17.9211C118.942 17.9211 153.171 52.1746 153.171 94.4109Z" stroke="url(#paint5_linear_1_10018)" stroke-width="0.6"/>
    </g>
    <g filter="url(#filter3_d_1_10018)">
        <path fill-rule="evenodd" clip-rule="evenodd" d="M111.427 6C147.798 6 177.283 35.5063 177.283 71.9032H177.262C177.262 92.2509 168.045 110.438 153.561 122.535V156.728C153.561 161.459 147.992 164.699 142.855 162.971L126.074 153.269C142.847 139.185 153.518 118.063 153.518 94.4325L153.496 94.4109C153.496 52.0091 119.133 17.6211 76.7608 17.6211C75.8366 17.6211 74.9163 17.6374 74 17.6699C84.6282 10.311 97.5244 6 111.427 6Z" fill="url(#paint6_linear_1_10018)"/>
    </g>
    <g filter="url(#filter4_b_1_10018)">
        <path d="M76.7357 36.7159C44.8974 36.7159 19.0815 62.5502 19.0815 94.4109C19.0815 126.272 44.8974 152.106 76.7357 152.106C108.574 152.106 134.39 126.272 134.39 94.4109C134.39 62.5502 108.574 36.7159 76.7357 36.7159ZM109.632 88.3196L95.7523 98.407C94.2845 99.4871 93.6585 101.366 94.2198 103.116L99.5081 119.424C100.76 123.291 96.3351 126.509 93.0326 124.133L79.1532 114.046C77.6855 112.966 75.678 112.966 74.2102 114.046L60.3309 124.133C57.0284 126.531 52.6034 123.312 53.8553 119.424L59.1437 103.116C59.7049 101.388 59.1005 99.4871 57.6112 98.407L43.7318 88.3196C40.4293 85.9219 42.1345 80.7162 46.1926 80.7162H63.3313C65.1444 80.7162 66.7633 79.5498 67.3245 77.8001L72.6129 61.4917C73.8649 57.6252 79.3475 57.6252 80.5995 61.4917L85.8879 77.8001C86.4491 79.5282 88.068 80.7162 89.8811 80.7162H107.02C111.099 80.7162 112.783 85.9219 109.481 88.3196H109.632Z" fill="url(#paint7_linear_1_10018)" fill-opacity="0.6"/>
        <path d="M109.808 88.5623L110.555 88.0196H110.286C112.946 85.2856 111.104 80.4162 107.02 80.4162H89.8811C88.1994 80.4162 86.6947 79.3133 86.1732 77.7075L80.8849 61.3993C79.5433 57.2561 73.6691 57.2561 72.3275 61.3993L67.0392 77.7076L67.0389 77.7085C66.5177 79.3334 65.0147 80.4162 63.3313 80.4162H46.1926C41.8445 80.4162 40.0173 85.9936 43.5556 88.5624L57.4348 98.6497L57.4351 98.6499C58.8184 99.653 59.3797 101.418 58.8584 103.023L58.8584 103.023L53.57 119.332L53.5698 119.332C52.2295 123.495 56.9681 126.945 60.5072 124.376L60.5073 124.376L74.3866 114.288L74.388 114.287C75.7501 113.285 77.6134 113.285 78.9754 114.287L78.9769 114.288L92.8562 124.376L92.8574 124.377C96.3937 126.921 101.135 123.476 99.7936 119.332L99.7935 119.332L94.5054 103.024C93.9843 101.399 94.5644 99.6543 95.929 98.6495C95.9294 98.6492 95.9298 98.6489 95.9301 98.6487L109.808 88.5623ZM19.3815 94.4109C19.3815 62.7157 45.0633 37.0159 76.7357 37.0159C108.408 37.0159 134.09 62.7157 134.09 94.4109C134.09 126.106 108.408 151.806 76.7357 151.806C45.0633 151.806 19.3815 126.106 19.3815 94.4109Z" stroke="url(#paint8_linear_1_10018)" stroke-width="0.6"/>
    </g>
    <g filter="url(#filter5_b_1_10018)">
        <path d="M76.9083 171.201C59.5322 171.201 43.4944 165.412 30.6295 155.648V193.233C30.6295 198.741 37.1051 202.522 43.1058 200.513L72.5481 183.513C76.0449 181.504 80.621 181.504 84.1178 183.513L113.56 200.513C119.561 202.522 126.036 198.741 126.036 193.233V153.402C112.718 164.505 95.6012 171.201 76.9299 171.201H76.9083Z" fill="url(#paint9_linear_1_10018)" fill-opacity="0.09"/>
        <path d="M72.3987 183.253L72.3981 183.253L42.9821 200.238C40.0749 201.202 37.0577 200.769 34.7686 199.433C32.4723 198.093 30.9295 195.86 30.9295 193.233V156.25C43.7624 165.832 59.6805 171.501 76.9083 171.501H76.9299C95.4451 171.501 112.438 164.942 125.736 154.039V193.233C125.736 195.86 124.194 198.093 121.897 199.433C119.608 200.769 116.591 201.202 113.684 200.238L84.2678 183.253L84.2673 183.253C80.6779 181.191 75.988 181.191 72.3987 183.253Z" stroke="url(#paint10_linear_1_10018)" stroke-width="0.6"/>
    </g>
    <g filter="url(#filter6_b_1_10018)">
        <mask id="path-12-inside-1_1_10018" fill="white">
            <path d="M76.7357 20.8611C117.273 20.8611 150.233 53.8667 150.233 94.4109C150.233 116.292 140.585 136.878 123.77 150.918L122.604 151.89V193.233C122.604 195.717 119.906 197.813 116.712 197.813C116.021 197.813 115.33 197.705 114.683 197.532L85.564 180.705C83.3623 179.431 80.7937 178.761 78.1603 178.761C75.5269 178.761 72.9582 179.431 70.7565 180.705L41.638 197.532C40.9689 197.726 40.2998 197.813 39.609 197.813C36.4144 197.813 33.7163 195.717 33.7163 193.233V154.05L32.4427 153.078C13.901 139.016 3.25946 117.653 3.25946 94.4109C3.25946 53.8451 36.2417 20.8611 76.7573 20.8611M76.7573 17.6211C34.3854 17.6211 0.0216675 52.0091 0.0216675 94.4109C0.0216675 119.424 11.9799 141.63 30.4785 155.67V193.255C30.4785 197.748 34.7739 201.074 39.609 201.074C40.7099 201.074 41.8323 200.901 42.9547 200.534L72.397 183.535C74.1454 182.519 76.1529 182.023 78.1819 182.023C80.2109 182.023 82.2183 182.519 83.9667 183.535L113.409 200.534C114.531 200.901 115.654 201.074 116.755 201.074C121.59 201.074 125.885 197.726 125.885 193.255V153.424C142.765 139.34 153.514 118.15 153.514 94.4325C153.514 52.0307 119.151 17.6427 76.7788 17.6427L76.7573 17.6211Z"/>
        </mask>
        <path d="M76.7357 20.8611C117.273 20.8611 150.233 53.8667 150.233 94.4109C150.233 116.292 140.585 136.878 123.77 150.918L122.604 151.89V193.233C122.604 195.717 119.906 197.813 116.712 197.813C116.021 197.813 115.33 197.705 114.683 197.532L85.564 180.705C83.3623 179.431 80.7937 178.761 78.1603 178.761C75.5269 178.761 72.9582 179.431 70.7565 180.705L41.638 197.532C40.9689 197.726 40.2998 197.813 39.609 197.813C36.4144 197.813 33.7163 195.717 33.7163 193.233V154.05L32.4427 153.078C13.901 139.016 3.25946 117.653 3.25946 94.4109C3.25946 53.8451 36.2417 20.8611 76.7573 20.8611M76.7573 17.6211C34.3854 17.6211 0.0216675 52.0091 0.0216675 94.4109C0.0216675 119.424 11.9799 141.63 30.4785 155.67V193.255C30.4785 197.748 34.7739 201.074 39.609 201.074C40.7099 201.074 41.8323 200.901 42.9547 200.534L72.397 183.535C74.1454 182.519 76.1529 182.023 78.1819 182.023C80.2109 182.023 82.2183 182.519 83.9667 183.535L113.409 200.534C114.531 200.901 115.654 201.074 116.755 201.074C121.59 201.074 125.885 197.726 125.885 193.255V153.424C142.765 139.34 153.514 118.15 153.514 94.4325C153.514 52.0307 119.151 17.6427 76.7788 17.6427L76.7573 17.6211Z" fill="url(#paint11_linear_1_10018)" fill-opacity="0.09"/>
        <path d="M123.77 150.918L124.154 151.379L124.155 151.378L123.77 150.918ZM122.604 151.89L122.22 151.429L122.004 151.609V151.89H122.604ZM114.683 197.532L114.382 198.051L114.451 198.091L114.528 198.112L114.683 197.532ZM85.564 180.705L85.2635 181.224L85.2638 181.224L85.564 180.705ZM70.7565 180.705L71.0568 181.224L71.0571 181.224L70.7565 180.705ZM41.638 197.532L41.8054 198.108L41.8753 198.088L41.9382 198.051L41.638 197.532ZM33.7163 154.05H34.3162V153.753L34.0803 153.573L33.7163 154.05ZM32.4427 153.078L32.8068 152.601L32.8053 152.6L32.4427 153.078ZM76.7573 17.6211L77.1818 17.1971L77.0061 17.0211H76.7573V17.6211ZM30.4785 155.67H31.0785V155.372L30.8412 155.192L30.4785 155.67ZM42.9547 200.534L43.1413 201.105L43.2007 201.085L43.2548 201.054L42.9547 200.534ZM72.397 183.535L72.697 184.054L72.6983 184.054L72.397 183.535ZM83.9667 183.535L83.6654 184.054L83.6667 184.054L83.9667 183.535ZM113.409 200.534L113.109 201.054L113.163 201.085L113.222 201.105L113.409 200.534ZM125.885 153.424L125.501 152.963L125.285 153.143V153.424H125.885ZM76.7788 17.6427L76.3543 18.0666L76.5301 18.2427H76.7788V17.6427ZM76.7357 21.4611C116.941 21.4611 149.633 54.1976 149.633 94.4109H150.833C150.833 53.5359 117.605 20.2611 76.7357 20.2611V21.4611ZM149.633 94.4109C149.633 116.114 140.064 136.531 123.385 150.457L124.155 151.378C141.106 137.224 150.833 116.471 150.833 94.4109H149.633ZM123.386 150.457L122.22 151.429L122.989 152.351L124.154 151.379L123.386 150.457ZM122.004 151.89V193.233H123.204V151.89H122.004ZM122.004 193.233C122.004 194.247 121.454 195.23 120.488 195.981C119.524 196.73 118.182 197.213 116.712 197.213V198.413C118.436 198.413 120.04 197.848 121.224 196.928C122.406 196.01 123.204 194.704 123.204 193.233H122.004ZM116.712 197.213C116.082 197.213 115.444 197.114 114.837 196.952L114.528 198.112C115.216 198.295 115.96 198.413 116.712 198.413V197.213ZM114.983 197.012L85.8642 180.186L85.2638 181.224L114.382 198.051L114.983 197.012ZM85.8646 180.186C83.5673 178.856 80.8942 178.161 78.1603 178.161V179.361C80.6932 179.361 83.1574 180.005 85.2635 181.224L85.8646 180.186ZM78.1603 178.161C75.4264 178.161 72.7533 178.856 70.456 180.186L71.0571 181.224C73.1632 180.005 75.6274 179.361 78.1603 179.361V178.161ZM70.4563 180.186L41.3378 197.012L41.9382 198.051L71.0568 181.224L70.4563 180.186ZM41.4706 196.956C40.8605 197.133 40.2482 197.213 39.609 197.213V198.413C40.3514 198.413 41.0773 198.32 41.8054 198.108L41.4706 196.956ZM39.609 197.213C38.1391 197.213 36.7967 196.73 35.8328 195.981C34.8671 195.23 34.3162 194.247 34.3162 193.233H33.1162C33.1162 194.704 33.9145 196.01 35.0965 196.928C36.2803 197.848 37.8844 198.413 39.609 198.413V197.213ZM34.3162 193.233V154.05H33.1162V193.233H34.3162ZM34.0803 153.573L32.8068 152.601L32.0787 153.555L33.3522 154.527L34.0803 153.573ZM32.8053 152.6C14.4126 138.651 3.85946 117.465 3.85946 94.4109H2.65946C2.65946 117.842 13.3894 139.381 32.0802 153.556L32.8053 152.6ZM3.85946 94.4109C3.85946 54.1762 36.5734 21.4611 76.7573 21.4611V20.2611C35.9101 20.2611 2.65946 53.5141 2.65946 94.4109H3.85946ZM76.7573 17.0211C34.0536 17.0211 -0.578333 51.6781 -0.578333 94.4109H0.621668C0.621668 52.3401 34.7172 18.2211 76.7573 18.2211V17.0211ZM-0.578333 94.4109C-0.578333 119.62 11.4744 141.999 30.1157 156.148L30.8412 155.192C12.4854 141.26 0.621668 119.228 0.621668 94.4109H-0.578333ZM29.8785 155.67V193.255H31.0785V155.67H29.8785ZM29.8785 193.255C29.8785 198.179 34.5519 201.674 39.609 201.674V200.474C34.9959 200.474 31.0785 197.317 31.0785 193.255H29.8785ZM39.609 201.674C40.7733 201.674 41.9587 201.491 43.1413 201.105L42.7682 199.964C41.7059 200.312 40.6464 200.474 39.609 200.474V201.674ZM43.2548 201.054L72.697 184.054L72.097 183.015L42.6547 200.015L43.2548 201.054ZM72.6983 184.054C74.3477 183.096 76.2496 182.623 78.1819 182.623V181.423C76.0561 181.423 73.9432 181.943 72.0957 183.016L72.6983 184.054ZM78.1819 182.623C80.1141 182.623 82.0161 183.096 83.6654 184.054L84.268 183.016C82.4206 181.943 80.3077 181.423 78.1819 181.423V182.623ZM83.6667 184.054L113.109 201.054L113.709 200.015L84.2667 183.015L83.6667 184.054ZM113.222 201.105C114.405 201.491 115.59 201.674 116.755 201.674V200.474C115.717 200.474 114.658 200.312 113.596 199.964L113.222 201.105ZM116.755 201.674C121.813 201.674 126.485 198.156 126.485 193.255H125.285C125.285 197.296 121.367 200.474 116.755 200.474V201.674ZM126.485 193.255V153.424H125.285V193.255H126.485ZM126.27 153.884C143.28 139.692 154.114 118.335 154.114 94.4325H152.914C152.914 117.964 142.25 138.988 125.501 152.963L126.27 153.884ZM154.114 94.4325C154.114 51.6997 119.482 17.0427 76.7788 17.0427V18.2427C118.819 18.2427 152.914 52.3617 152.914 94.4325H154.114ZM77.2034 17.2187L77.1818 17.1971L76.3327 18.045L76.3543 18.0666L77.2034 17.2187Z" fill="url(#paint12_linear_1_10018)" mask="url(#path-12-inside-1_1_10018)"/>
    </g>
    <path opacity="0.71" d="M117.445 33.8863L135.922 56.394L120.554 31.6398L143.067 13.1498L118.33 28.5293L99.8534 6L115.201 30.7542L92.7087 49.2442L117.445 33.8863Z" fill="url(#paint13_radial_1_10018)"/>
    <defs>
        <filter id="filter0_b_1_10018" x="-2.99997" y="14.6211" width="159.493" height="189.459" filterUnits="userSpaceOnUse" color-interpolation-filters="sRGB">
            <feFlood flood-opacity="0" result="BackgroundImageFix"/>
            <feGaussianBlur in="BackgroundImageFix" stdDeviation="1.5"/>
            <feComposite in2="SourceAlpha" operator="in" result="effect1_backgroundBlur_1_10018"/>
            <feBlend mode="normal" in="SourceGraphic" in2="effect1_backgroundBlur_1_10018" result="shape"/>
        </filter>
        <filter id="filter1_b_1_10018" x="-2.99997" y="14.6211" width="159.493" height="189.459" filterUnits="userSpaceOnUse" color-interpolation-filters="sRGB">
            <feFlood flood-opacity="0" result="BackgroundImageFix"/>
            <feGaussianBlur in="BackgroundImageFix" stdDeviation="1.5"/>
            <feComposite in2="SourceAlpha" operator="in" result="effect1_backgroundBlur_1_10018"/>
            <feBlend mode="normal" in="SourceGraphic" in2="effect1_backgroundBlur_1_10018" result="shape"/>
        </filter>
        <filter id="filter2_b_1_10018" x="-2.99997" y="14.6211" width="159.493" height="189.459" filterUnits="userSpaceOnUse" color-interpolation-filters="sRGB">
            <feFlood flood-opacity="0" result="BackgroundImageFix"/>
            <feGaussianBlur in="BackgroundImageFix" stdDeviation="1.5"/>
            <feComposite in2="SourceAlpha" operator="in" result="effect1_backgroundBlur_1_10018"/>
            <feBlend mode="normal" in="SourceGraphic" in2="effect1_backgroundBlur_1_10018" result="shape"/>
        </filter>
        <filter id="filter3_d_1_10018" x="72.26" y="0.8" width="113.683" height="167.842" filterUnits="userSpaceOnUse" color-interpolation-filters="sRGB">
            <feFlood flood-opacity="0" result="BackgroundImageFix"/>
            <feColorMatrix in="SourceAlpha" type="matrix" values="0 0 0 0 0 0 0 0 0 0 0 0 0 0 0 0 0 0 127 0" result="hardAlpha"/>
            <feOffset dx="3.46"/>
            <feGaussianBlur stdDeviation="2.6"/>
            <feColorMatrix type="matrix" values="0 0 0 0 0 0 0 0 0 0 0 0 0 0 0 0 0 0 0.33 0"/>
            <feBlend mode="normal" in2="BackgroundImageFix" result="effect1_dropShadow_1_10018"/>
            <feBlend mode="normal" in="SourceGraphic" in2="effect1_dropShadow_1_10018" result="shape"/>
        </filter>
        <filter id="filter4_b_1_10018" x="16.0815" y="33.7159" width="121.308" height="121.39" filterUnits="userSpaceOnUse" color-interpolation-filters="sRGB">
            <feFlood flood-opacity="0" result="BackgroundImageFix"/>
            <feGaussianBlur in="BackgroundImageFix" stdDeviation="1.5"/>
            <feComposite in2="SourceAlpha" operator="in" result="effect1_backgroundBlur_1_10018"/>
            <feBlend mode="normal" in="SourceGraphic" in2="effect1_backgroundBlur_1_10018" result="shape"/>
        </filter>
        <filter id="filter5_b_1_10018" x="27.6295" y="150.402" width="101.407" height="53.657" filterUnits="userSpaceOnUse" color-interpolation-filters="sRGB">
            <feFlood flood-opacity="0" result="BackgroundImageFix"/>
            <feGaussianBlur in="BackgroundImageFix" stdDeviation="1.5"/>
            <feComposite in2="SourceAlpha" operator="in" result="effect1_backgroundBlur_1_10018"/>
            <feBlend mode="normal" in="SourceGraphic" in2="effect1_backgroundBlur_1_10018" result="shape"/>
        </filter>
        <filter id="filter6_b_1_10018" x="-2.97833" y="14.6211" width="159.493" height="189.453" filterUnits="userSpaceOnUse" color-interpolation-filters="sRGB">
            <feFlood flood-opacity="0" result="BackgroundImageFix"/>
            <feGaussianBlur in="BackgroundImageFix" stdDeviation="1.5"/>
            <feComposite in2="SourceAlpha" operator="in" result="effect1_backgroundBlur_1_10018"/>
            <feBlend mode="normal" in="SourceGraphic" in2="effect1_backgroundBlur_1_10018" result="shape"/>
        </filter>
        <linearGradient id="paint0_linear_1_10018" x1="76.7464" y1="17.6211" x2="76.7464" y2="201.08" gradientUnits="userSpaceOnUse">
            <stop stop-color="#E0B9FF"/>
            <stop offset="1" stop-color="#DFB7FF" stop-opacity="0.33"/>
        </linearGradient>
        <linearGradient id="paint1_linear_1_10018" x1="76.7464" y1="17.6211" x2="76.7464" y2="201.08" gradientUnits="userSpaceOnUse">
            <stop stop-color="white" stop-opacity="0.24"/>
            <stop offset="1" stop-color="#622DA5" stop-opacity="0"/>
        </linearGradient>
        <linearGradient id="paint2_linear_1_10018" x1="76.7464" y1="17.6211" x2="76.7464" y2="201.08" gradientUnits="userSpaceOnUse">
            <stop stop-color="#E0B9FF"/>
            <stop offset="1" stop-color="#DFB7FF" stop-opacity="0.33"/>
        </linearGradient>
        <linearGradient id="paint3_linear_1_10018" x1="76.7464" y1="17.6211" x2="76.7464" y2="201.08" gradientUnits="userSpaceOnUse">
            <stop stop-color="white" stop-opacity="0.24"/>
            <stop offset="1" stop-color="#622DA5" stop-opacity="0"/>
        </linearGradient>
        <linearGradient id="paint4_linear_1_10018" x1="76.7464" y1="17.6211" x2="76.7464" y2="201.08" gradientUnits="userSpaceOnUse">
            <stop stop-color="#E0B9FF"/>
            <stop offset="1" stop-color="#DFB7FF" stop-opacity="0.33"/>
        </linearGradient>
        <linearGradient id="paint5_linear_1_10018" x1="76.7464" y1="17.6211" x2="76.7464" y2="201.08" gradientUnits="userSpaceOnUse">
            <stop stop-color="white" stop-opacity="0.24"/>
            <stop offset="1" stop-color="#622DA5" stop-opacity="0"/>
        </linearGradient>
        <linearGradient id="paint6_linear_1_10018" x1="177.283" y1="67.5007" x2="46.3338" y2="70.3482" gradientUnits="userSpaceOnUse">
            <stop stop-color="#F29F60"/>
            <stop offset="0.443" stop-color="#EA5F7E"/>
            <stop offset="1" stop-color="#6F67EA"/>
        </linearGradient>
        <linearGradient id="paint7_linear_1_10018" x1="76.7357" y1="36.7159" x2="76.7357" y2="152.106" gradientUnits="userSpaceOnUse">
            <stop stop-color="#E0B9FF"/>
            <stop offset="1" stop-color="#DFB7FF" stop-opacity="0.33"/>
        </linearGradient>
        <linearGradient id="paint8_linear_1_10018" x1="76.7357" y1="36.7159" x2="76.7357" y2="152.106" gradientUnits="userSpaceOnUse">
            <stop stop-color="white" stop-opacity="0.24"/>
            <stop offset="1" stop-color="#622DA5" stop-opacity="0"/>
        </linearGradient>
        <linearGradient id="paint9_linear_1_10018" x1="78.333" y1="153.402" x2="78.333" y2="201.059" gradientUnits="userSpaceOnUse">
            <stop stop-color="#E0B9FF"/>
            <stop offset="1" stop-color="#DFB7FF" stop-opacity="0.33"/>
        </linearGradient>
        <linearGradient id="paint10_linear_1_10018" x1="78.333" y1="153.402" x2="78.333" y2="201.059" gradientUnits="userSpaceOnUse">
            <stop stop-color="white" stop-opacity="0.24"/>
            <stop offset="1" stop-color="#622DA5" stop-opacity="0"/>
        </linearGradient>
        <linearGradient id="paint11_linear_1_10018" x1="76.7681" y1="17.6211" x2="76.7681" y2="201.074" gradientUnits="userSpaceOnUse">
            <stop stop-color="#E0B9FF"/>
            <stop offset="1" stop-color="#DFB7FF" stop-opacity="0.33"/>
        </linearGradient>
        <linearGradient id="paint12_linear_1_10018" x1="76.7681" y1="17.6211" x2="76.7681" y2="201.074" gradientUnits="userSpaceOnUse">
            <stop stop-color="white" stop-opacity="0.24"/>
            <stop offset="1" stop-color="#622DA5" stop-opacity="0"/>
        </linearGradient>
        <radialGradient id="paint13_radial_1_10018" cx="0" cy="0" r="1" gradientUnits="userSpaceOnUse" gradientTransform="translate(117.822 31.8247) rotate(54.2092) scale(30.9893 30.9823)">
            <stop stop-color="white"/>
            <stop offset="0.09" stop-color="white" stop-opacity="0.84"/>
            <stop offset="0.23" stop-color="white" stop-opacity="0.62"/>
            <stop offset="0.36" stop-color="white" stop-opacity="0.43"/>
            <stop offset="0.5" stop-color="white" stop-opacity="0.28"/>
            <stop offset="0.63" stop-color="white" stop-opacity="0.15"/>
            <stop offset="0.76" stop-color="white" stop-opacity="0.07"/>
            <stop offset="0.89" stop-color="white" stop-opacity="0.02"/>
            <stop offset="1" stop-color="white" stop-opacity="0"/>
        </radialGradient>
    </defs>
</svg>
