<svg width="18" height="18" viewBox="0 0 18 18" fill="none"
    xmlns="http://www.w3.org/2000/svg">
    <path d="M14.76 9.29649C14.76 8.93649 14.4847 8.66119 14.1247 8.66119C13.7647 8.66119 13.4894 8.93649 13.4894 9.29649C13.4894 11.7741 11.4776 13.7859 8.99999 13.7859C6.52234 13.7859 4.51058 11.7741 4.51058 9.29649C4.51058 8.93649 4.23528 8.66119 3.87528 8.66119C3.51528 8.66119 3.23999 8.93649 3.23999 9.29649C3.23999 12.24 5.44234 14.7177 8.3647 15.0353V16.7294H6.05646C5.69646 16.7294 5.42117 17.0047 5.42117 17.3647C5.42117 17.7247 5.69646 18 6.05646 18H11.9435C12.3035 18 12.5788 17.7247 12.5788 17.3647C12.5788 17.0047 12.3035 16.7294 11.9435 16.7294H9.63528V15.0353C12.5576 14.7177 14.76 12.24 14.76 9.29649Z" fill="white"/>
    <path d="M9.00009 0C7.05186 0 5.46362 1.58824 5.46362 3.53647V9.27529C5.46362 11.2447 7.05186 12.8118 9.00009 12.8329C10.9483 12.8329 12.5366 11.2447 12.5366 9.29647V3.53647C12.5366 1.58824 10.9483 0 9.00009 0Z" fill="white"/>
</svg>
