<svg width="30" height="30" viewBox="0 0 30 30" fill="none"
    xmlns="http://www.w3.org/2000/svg">
    <g filter="url(#filter0_b_1_10080)">
        <rect width="30" height="30" rx="15" fill="url(#paint0_linear_1_10080)" fill-opacity="0.09"/>
        <rect x="0.3" y="0.3" width="29.4" height="29.4" rx="14.7" stroke="url(#paint1_linear_1_10080)" stroke-width="0.6"/>
        <g clip-path="url(#clip0_1_10080)">
            <path d="M15.5555 12.2071C15.3757 12.1714 15.1901 12.1523 15 12.1523C13.4298 12.1523 12.1523 13.4298 12.1523 15C12.1523 16.5702 13.4298 17.8477 15 17.8477C16.5702 17.8477 17.8477 16.5702 17.8477 15C17.8477 14.8099 17.8286 14.6243 17.7929 14.4445L16.1187 16.1187C15.8199 16.4175 15.4226 16.582 15 16.582C14.5774 16.582 14.1801 16.4175 13.8813 16.1187C13.5825 15.8199 13.418 15.4226 13.418 15C13.418 14.5774 13.5825 14.1801 13.8813 13.8813L15.5555 12.2071Z" fill="white"/>
            <path d="M23.1946 11.28L22.06 12.4146C21.9464 12.5282 21.8184 12.6224 21.6802 12.6955C21.9302 13.4182 22.0664 14.1935 22.0664 15C22.0664 18.8964 18.8964 22.0664 15 22.0664C11.1036 22.0664 7.93359 18.8964 7.93359 15C7.93359 11.1036 11.1036 7.93359 15 7.93359C15.8068 7.93359 16.5824 8.06996 17.3053 8.32004C17.3785 8.18175 17.4721 8.05321 17.5855 7.93991L18.72 6.80544C17.5855 6.28839 16.3259 6 15 6C10.0373 6 6 10.0373 6 15C6 19.9627 10.0373 24 15 24C19.9627 24 24 19.9627 24 15C24 13.6741 23.7116 12.4145 23.1946 11.28Z" fill="white"/>
            <path d="M17.2398 10.5228L17.1437 9.38351C16.4775 9.12822 15.7549 8.98828 15 8.98828C11.6852 8.98828 8.98828 11.6852 8.98828 15C8.98828 18.3148 11.6852 21.0117 15 21.0117C18.3148 21.0117 21.0117 18.3148 21.0117 15C21.0117 14.2451 20.8718 13.5225 20.6165 12.8563L19.4772 12.7602L18.641 13.5962C18.8096 14.0321 18.9023 14.5053 18.9023 15C18.9023 17.1518 17.1518 18.9023 15 18.9023C12.8482 18.9023 11.0977 17.1518 11.0977 15C11.0977 12.8482 12.8482 11.0977 15 11.0977C15.4947 11.0977 15.9679 11.1904 16.4038 11.359L17.2398 10.5228Z" fill="white"/>
            <path d="M18.1785 9.10294L18.332 10.9223L14.6272 14.6271C14.4212 14.833 14.4212 15.167 14.6272 15.3728C14.73 15.4758 14.865 15.5273 15 15.5273C15.135 15.5273 15.27 15.4758 15.3728 15.3728L19.0777 11.668L20.897 11.8214C20.9119 11.8226 20.9266 11.8233 20.9414 11.8233C21.0807 11.8233 21.215 11.7681 21.3143 11.6688L23.5515 9.43143C23.6966 9.28641 23.7444 9.07025 23.674 8.87744C23.6034 8.68463 23.4275 8.55032 23.223 8.53316L21.6033 8.39652L21.4668 6.77699C21.4495 6.57237 21.3152 6.39646 21.1225 6.32601C20.9297 6.25542 20.7136 6.30335 20.5684 6.44837L18.3312 8.68573C18.2213 8.79559 18.1654 8.94817 18.1785 9.10294Z" fill="white"/>
        </g>
    </g>
    <defs>
        <filter id="filter0_b_1_10080" x="-3" y="-3" width="36" height="36" filterUnits="userSpaceOnUse" color-interpolation-filters="sRGB">
            <feFlood flood-opacity="0" result="BackgroundImageFix"/>
            <feGaussianBlur in="BackgroundImageFix" stdDeviation="1.5"/>
            <feComposite in2="SourceAlpha" operator="in" result="effect1_backgroundBlur_1_10080"/>
            <feBlend mode="normal" in="SourceGraphic" in2="effect1_backgroundBlur_1_10080" result="shape"/>
        </filter>
        <linearGradient id="paint0_linear_1_10080" x1="15" y1="0" x2="15" y2="30" gradientUnits="userSpaceOnUse">
            <stop stop-color="#AAAAAA"/>
            <stop offset="1" stop-color="#DFB7FF" stop-opacity="0.33"/>
        </linearGradient>
        <linearGradient id="paint1_linear_1_10080" x1="15" y1="0" x2="15" y2="30" gradientUnits="userSpaceOnUse">
            <stop stop-color="white" stop-opacity="0.24"/>
            <stop offset="1" stop-color="white" stop-opacity="0.24"/>
        </linearGradient>
        <clipPath id="clip0_1_10080">
            <rect x="6" y="6" width="18" height="18" fill="white"/>
        </clipPath>
    </defs>
</svg>
