<svg width="62" height="62" viewBox="0 0 62 62" fill="none"
    xmlns="http://www.w3.org/2000/svg">
    <g clip-path="url(#clip0_1_11414)">
        <path d="M31 62C48.1208 62 62 48.1208 62 31C62 13.8792 48.1208 7.62939e-06 31 7.62939e-06C13.8792 7.62939e-06 0 13.8792 0 31C0 48.1208 13.8792 62 31 62Z" fill="#7584F2"/>
        <path d="M61.9999 31C61.9999 29.3749 61.8748 27.7792 61.6339 26.2216L49.793 14.3807L48.6995 15.8759L43.9668 11.1432L14.8929 16.441L12.2068 29.7715L29.0646 46.6293L18.9279 54.7344L25.7509 61.5574C27.4571 61.8484 29.2108 62 30.9999 62C48.1208 62 61.9999 48.1208 61.9999 31Z" fill="#4253CE"/>
        <path d="M25.8999 35.3623L12.207 29.7715V14.3807H25.8999V35.3623ZM15.8398 27.3309L22.2671 29.9551V18.0135H15.8398V27.3309Z" fill="#FDBA12"/>
        <path d="M36.1001 35.3623V14.3807H49.793V29.7715L36.1001 35.3623ZM39.7329 18.0135V29.9551L46.1602 27.3309V18.0135H39.7329Z" fill="#FFA300"/>
        <path d="M18.0332 11.1432V24.8846C18.0332 29.1048 19.7933 33.1336 22.8897 36.0009L27.2499 40.0388V52.3101H34.7503V40.0387L39.1105 36.0008C42.2069 33.1334 43.967 29.1046 43.967 24.8845V11.1432H18.0332Z" fill="#FFCE00"/>
        <path d="M31.0146 11.1432V52.31H34.7503V40.0387L39.1105 36.0009C42.2067 33.1336 43.9668 29.1048 43.9668 24.8846V11.1432H31.0146Z" fill="#FDBA12"/>
        <path d="M40.2695 23.9526C41.1001 18.829 37.6199 14.0022 32.4963 13.1716C27.3727 12.3411 22.5459 15.8212 21.7153 20.9449C20.8847 26.0685 24.3649 30.8953 29.4885 31.7258C34.6121 32.5564 39.4389 29.0762 40.2695 23.9526Z" fill="#FFE89C"/>
        <path d="M40.3994 22.4501C40.3994 17.2639 36.199 13.059 31.0146 13.0511V31.8491C36.1989 31.8411 40.3994 27.6363 40.3994 22.4501Z" fill="#FAD17F"/>
        <path d="M32.8165 25.7416H29.1837V25.5806C29.1837 23.7085 30.1457 21.9926 31.7572 20.9905C32.2123 20.7076 32.4718 20.1982 32.4348 19.661C32.3869 18.964 31.8031 18.3803 31.106 18.3323C30.7007 18.3045 30.3136 18.4402 30.0191 18.715C29.7242 18.9903 29.5618 19.364 29.5618 19.767H25.929C25.929 18.3667 26.5164 17.0153 27.5404 16.0593C28.564 15.1039 29.9548 14.6117 31.356 14.7082C33.8642 14.8811 35.8861 16.903 36.0592 19.4112C36.1889 21.2935 35.2755 23.0807 33.6756 24.0756C33.1377 24.4101 32.8165 24.9727 32.8165 25.5806V25.7416Z" fill="#FFAA00"/>
        <path d="M36.0591 19.4113C35.886 16.9031 33.8641 14.8812 31.3559 14.7083C31.2419 14.7004 31.1282 14.6979 31.0146 14.6978V18.3307C31.045 18.3309 31.0752 18.3303 31.1058 18.3324C31.803 18.3805 32.3866 18.9641 32.4347 19.6612C32.4718 20.1983 32.2121 20.7077 31.7571 20.9906C31.4908 21.1563 31.244 21.343 31.0146 21.5451V25.7416H32.8165V25.5806C32.8165 24.9727 33.1375 24.4101 33.6756 24.0756C35.2755 23.0808 36.1889 21.2936 36.0591 19.4113Z" fill="#FF9500"/>
        <path d="M29.1836 26.974H32.8164V30.0311H29.1836V26.974Z" fill="#FFAA00"/>
        <path d="M31.0146 26.974H32.8164V30.0311H31.0146V26.974Z" fill="#FF9500"/>
        <path d="M21.9321 42.9057H40.0679V50.7914H21.9321V42.9057Z" fill="#FDBA12"/>
        <path d="M31.0146 42.9057H40.068V50.7916H31.0146V42.9057Z" fill="#FFA300"/>
        <path d="M18.928 46.8486H43.0721V54.7344H18.928V46.8486Z" fill="#FF6C52"/>
        <path d="M31.0146 46.8485H43.0722V54.7344H31.0146V46.8485Z" fill="#FF432E"/>
    </g>
    <defs>
        <clipPath id="clip0_1_11414">
            <rect width="62" height="62" fill="white"/>
        </clipPath>
    </defs>
</svg>
