<svg width="62" height="62" viewBox="0 0 62 62" fill="none"
    xmlns="http://www.w3.org/2000/svg">
    <g clip-path="url(#clip0_1_11459)">
        <path d="M31 62C48.1208 62 62 48.1208 62 31C62 13.8792 48.1208 7.62939e-06 31 7.62939e-06C13.8792 7.62939e-06 0 13.8792 0 31C0 48.1208 13.8792 62 31 62Z" fill="#FF3501"/>
        <path d="M42.2132 22.1327H47.3868L61.5466 36.3124C59.0272 50.9021 46.3095 62 31 62C30.5844 62 30.1709 61.9918 29.7592 61.9757L8.06135 40.2776C7.15205 39.3808 6.56245 38.2917 6.41992 37.1058H7.27496L14.6134 22.1445V22.1327H22.614C22.6401 22.1012 22.6669 22.0704 22.6949 22.0404C22.7279 22.005 22.7619 21.971 22.7972 21.9381C22.8502 21.8888 22.9057 21.8424 22.9639 21.7988C23.1186 21.683 23.2906 21.5891 23.4754 21.5214C23.4907 21.5157 23.5062 21.5104 23.5219 21.505C23.5452 21.497 23.5687 21.4897 23.5925 21.4825C23.6082 21.4778 23.6242 21.4733 23.6402 21.4691C23.6811 21.4579 23.7226 21.4481 23.7645 21.4396V18.1836C23.7645 17.0735 24.6644 16.1736 25.7745 16.1736C26.3466 16.1736 26.863 16.4128 27.229 16.7964L27.9115 17.4787C28.1972 16.7164 28.9323 16.1738 29.7943 16.1738C30.3665 16.1738 30.8828 16.4129 31.2489 16.7966L32.2185 17.7654C32.5859 17.2865 33.164 16.9777 33.8141 16.9777C34.3863 16.9777 34.9027 17.2169 35.2687 17.6007L36.6443 18.9755C36.9773 18.7305 37.3887 18.5857 37.8341 18.5857C38.4062 18.5857 38.9226 18.8249 39.2886 19.2085L42.2132 22.1327Z" fill="#C70024"/>
        <path d="M47.3868 22.1327H14.613V24.3672H47.3868V22.1327Z" fill="#FFDA44"/>
        <path d="M47.3869 22.1327H31V24.3672H47.3869V22.1327Z" fill="#FFA733"/>
        <path d="M9.23633 37.3961L14.6133 26.4468L20.0155 37.3961H22.0939L14.6133 22.1445L7.13257 37.3961H9.23633Z" fill="#FFDA44"/>
        <path d="M14.6133 22.1445V26.4468L20.0155 37.3961H22.094L14.6133 22.1445Z" fill="#FFA733"/>
        <path d="M6.41992 37.1059C6.7981 40.2512 10.3211 42.7164 14.6132 42.7164C18.9054 42.7164 22.4285 40.2512 22.8066 37.1059H6.41992Z" fill="#EE8700"/>
        <path d="M14.6133 37.1059V42.7164C18.9056 42.7164 22.4285 40.2512 22.8066 37.1059H14.6133Z" fill="#CC7400"/>
        <path d="M42.0096 37.3961L47.3867 26.4468L52.7889 37.3961H54.8674L47.3867 22.1445L39.906 37.3961H42.0096Z" fill="#FFDA44"/>
        <path d="M47.3867 22.1445V26.4468L52.789 37.3961H54.8674L47.3867 22.1445Z" fill="#FFA733"/>
        <path d="M39.1934 37.1059C39.5715 40.2512 43.0945 42.7164 47.3867 42.7164C51.6788 42.7164 55.202 40.2512 55.58 37.1059H39.1934Z" fill="#EE8700"/>
        <path d="M47.3867 37.1059V42.7164C51.679 42.7164 55.202 40.2512 55.58 37.1059H47.3867Z" fill="#CC7400"/>
        <path d="M36.6285 25.42H25.3728V44.4782H36.6285V25.42Z" fill="white"/>
        <path d="M36.6277 25.42H31V44.4782H36.6277V25.42Z" fill="#E1E3FA"/>
        <path d="M37.4318 35.5394H24.5681V44.4782H37.4318V35.5394Z" fill="#3E3D42"/>
        <path d="M37.4317 35.5394H31V44.4782H37.4317V35.5394Z" fill="#2D2D30"/>
        <path d="M37.8339 21.3997H36.628H34.6181H29.7944H25.3725H24.1667C23.0566 21.3997 22.1567 22.2995 22.1567 23.4096V25.4195C22.1567 27.0079 22.5268 28.5744 23.2375 29.9949L25.3726 33.4593H31.8043H32.6082H36.6282L38.7633 29.9949C39.474 28.5745 39.8442 27.0079 39.8442 25.4195V23.4096C39.8437 22.2995 38.944 21.3997 37.8339 21.3997Z" fill="#FFA733"/>
        <path d="M25.7741 27.4294C24.664 27.4294 23.7642 26.5296 23.7642 25.4195V18.1838C23.7642 17.0737 24.664 16.1739 25.7741 16.1739C26.8841 16.1739 27.784 17.0737 27.784 18.1838V25.4195C27.784 26.5296 26.8841 27.4294 25.7741 27.4294Z" fill="#FFC477"/>
        <path d="M29.7941 27.4294C28.684 27.4294 27.7842 26.5296 27.7842 25.4195V18.1838C27.7842 17.0737 28.684 16.1739 29.7941 16.1739C30.9042 16.1739 31.804 17.0737 31.804 18.1838V25.4195C31.8039 26.5296 30.9039 27.4294 29.7941 27.4294Z" fill="#FFC477"/>
        <path d="M33.8136 27.4294C32.7036 27.4294 31.8037 26.5296 31.8037 25.4195V18.9879C31.8037 17.8778 32.7036 16.978 33.8136 16.978C34.9237 16.978 35.8235 17.8778 35.8235 18.9879V25.4195C35.8235 26.5296 34.9237 27.4294 33.8136 27.4294Z" fill="#FFC477"/>
        <path d="M37.8336 27.4294C36.7236 27.4294 35.8237 26.5296 35.8237 25.4195V20.5957C35.8237 19.4857 36.7236 18.5858 37.8336 18.5858C38.9437 18.5858 39.8436 19.4857 39.8436 20.5957V25.4195C39.8434 26.5296 38.9437 27.4294 37.8336 27.4294Z" fill="#FFC477"/>
        <path d="M29.7941 21.3997H24.1664C23.0563 21.3997 22.1565 22.2995 22.1565 23.4096V25.4195V26.4068C22.1565 27.4871 22.4323 28.5495 22.9579 29.4934L23.2371 29.9949L25.3723 33.4593H31V30.2432C31 28.4484 29.8102 26.7164 28.0845 26.2232L26.1763 25.603V25.4193H29.7941C30.9042 25.4193 31.804 24.5194 31.804 23.4094C31.8039 22.2995 30.9039 21.3997 29.7941 21.3997Z" fill="#FFDAAA"/>
    </g>
    <defs>
        <clipPath id="clip0_1_11459">
            <rect width="62" height="62" fill="white"/>
        </clipPath>
    </defs>
</svg>
